<?xml version="1.0" encoding="iso-8859-1"?>
<!-- Generator: Adobe Illustrator 19.0.0, SVG Export Plug-In . SVG Version: 6.00 Build 0)  -->
<svg version="1.1" id="Capa_1" xmlns="http://www.w3.org/2000/svg" xmlns:xlink="http://www.w3.org/1999/xlink" x="0px" y="0px"
	 viewBox="0 0 512 512" style="enable-background:new 0 0 512 512;" xml:space="preserve">
<path style="fill:#FFD15C;" d="M18.133,360.533L18.133,360.533c0,37.333,29.867,67.2,67.2,67.2h341.333
	c37.333,0,67.2-29.867,67.2-67.2l0,0H18.133z"/>
<path style="fill:#4CDBC4;" d="M30.933,372.267c6.4,7.467,17.067,11.733,26.667,9.6c4.267-1.067,7.467-2.133,11.733-3.2
	c7.467,0,12.8,5.333,19.2,8.533c11.733,6.4,26.667,7.467,39.467,2.133c13.867-6.4,25.6-20.267,41.6-18.133
	c16,2.133,26.667,22.4,42.667,20.267c12.8-1.067,21.333-17.067,35.2-18.133c7.467,0,14.933,4.267,21.333,8.533
	c29.867,18.133,70.4,16,98.133-4.267c5.333-3.2,9.6-7.467,14.933-9.6c10.667-3.2,22.4,2.133,32,7.467
	c10.667,5.333,21.333,10.667,34.133,12.8c11.733,2.133,24.533,1.067,35.2-5.333c9.6-6.4,17.067-19.2,13.867-29.867
	c-2.133-11.733-16-20.267-26.667-17.067c-7.467,2.133-13.867,9.6-21.333,9.6c-11.733,0-20.267-14.933-32-14.933
	c-5.333,0-9.6,3.2-14.933,4.267c-6.4,2.133-12.8,2.133-20.267,2.133c-13.867,0-28.8,1.067-42.667,1.067
	c-49.067,1.067-98.133,2.133-147.2,3.2c-27.733,1.067-55.467,1.067-84.267,2.133c-21.333,0-41.6,1.067-62.933-2.133
	c-7.467-1.067-21.333-3.2-23.467,7.467C16,356.267,25.6,366.933,30.933,372.267z"/>
<path style="fill:#3DC9AE;" d="M27.733,331.733c0,12.8,9.6,25.6,21.333,30.933c11.733,6.4,25.6,7.467,39.467,8.533
	s27.733,2.133,40.533-2.133c12.8-5.333,24.533-17.067,38.4-14.933c13.867,1.067,24.533,14.933,38.4,19.2
	c19.2,5.333,37.333-8.533,56.533-9.6c26.667-1.067,51.2,22.4,75.733,13.867c13.867-4.267,23.467-17.067,37.333-21.333
	c13.867-4.267,28.8,1.067,42.667,6.4c14.933,6.4,30.933,14.933,48,11.733c8.533-2.133,16-6.4,19.2-13.867
	c6.4-12.8-2.133-24.533-12.8-29.867c-7.467-3.2-14.933-4.267-22.4-5.333c-92.8-12.8-186.667-11.733-279.467-9.6
	c-36.267,0-70.4-8.533-105.6-12.8C46.933,298.667,29.867,312.533,27.733,331.733L27.733,331.733z"/>
<path style="fill:#FF7058;" d="M472.533,264.533H39.467C18.133,264.533,0,282.667,0,304c0,21.333,18.133,39.467,39.467,39.467
	h433.067C493.867,343.467,512,325.333,512,304C512,282.667,493.867,264.533,472.533,264.533z"/>
<path style="fill:#4CDBC4;" d="M30.933,272c6.4,7.467,17.067,11.733,26.667,9.6c4.267-1.067,7.467-2.133,11.733-3.2
	c7.467,0,12.8,5.333,19.2,8.533c11.733,6.4,26.667,7.467,39.467,2.133c13.867-6.4,25.6-20.267,41.6-18.133
	s26.667,22.4,42.667,20.267c12.8-1.067,21.333-17.067,35.2-18.133c7.467,0,14.933,4.267,21.333,8.533
	c29.867,18.133,70.4,16,98.133-4.267c5.333-3.2,9.6-7.467,14.933-9.6c10.667-3.2,22.4,2.133,32,7.467
	C424.533,280.533,435.2,285.867,448,288c11.733,2.133,24.533,1.067,35.2-5.333c9.6-6.4,17.067-19.2,13.867-29.867
	c-3.2-10.667-16-20.267-26.667-17.067c-7.467,2.133-13.867,9.6-21.333,9.6c-11.733,0-20.267-14.933-32-14.933
	c-5.333,0-9.6,3.2-14.933,4.267c-6.4,2.133-12.8,2.133-20.267,2.133c-13.867,0-28.8,1.067-42.667,1.067
	c-49.067,1.067-98.133,2.133-147.2,3.2c-27.733,1.067-55.467,1.067-84.267,2.133c-21.333,0-41.6,1.067-62.933-2.133
	c-7.467-1.067-21.333-3.2-23.467,7.467C16,256,25.6,266.667,30.933,272z"/>
<path style="fill:#3DC9AE;" d="M27.733,231.467c0,12.8,9.6,25.6,21.333,30.933c11.733,6.4,25.6,7.467,39.467,8.533
	c13.867,1.067,27.733,2.133,40.533-2.133c12.8-5.333,24.533-17.067,38.4-14.933c13.867,1.067,24.533,14.933,38.4,19.2
	c19.2,5.333,37.333-8.533,56.533-9.6c26.667-1.067,51.2,22.4,75.733,13.867C352,273.067,361.6,260.267,375.467,256
	c13.867-4.267,28.8,1.067,42.667,6.4c14.933,6.4,30.933,14.933,48,11.733c8.533-2.133,16-6.4,19.2-13.867
	c6.4-12.8-2.133-24.533-12.8-29.867c-7.467-3.2-14.933-4.267-22.4-5.333c-92.8-12.8-186.667-11.733-279.467-9.6
	c-36.267,0-70.4-8.533-105.6-12.8C46.933,198.4,29.867,212.267,27.733,231.467L27.733,231.467z"/>
<path style="fill:#FFD15C;" d="M477.867,240c11.733,0,19.2-13.867,14.933-26.667C469.333,139.733,372.267,84.267,256,84.267
	c-115.2,0-212.267,54.4-236.8,126.933c-4.267,13.867,3.2,28.8,14.933,28.8H477.867z"/>
<g>
</g>
<g>
</g>
<g>
</g>
<g>
</g>
<g>
</g>
<g>
</g>
<g>
</g>
<g>
</g>
<g>
</g>
<g>
</g>
<g>
</g>
<g>
</g>
<g>
</g>
<g>
</g>
<g>
</g>
</svg>
